<svg width="140" height="37" viewBox="0 0 140 37" fill="none" xmlns="http://www.w3.org/2000/svg">
<path d="M24.5195 15.4427C24.4454 15.9531 24.1088 16.6466 23.7227 17.2495C23.2355 18.0103 22.4624 18.5431 21.5776 18.7281L17.6799 19.5432C17.0534 19.6742 16.4854 20.002 16.0588 20.4788L13.5032 23.3355C13.0229 23.8724 12.6872 23.7443 12.6872 23.0243C12.6814 23.0509 11.4188 26.307 14.7648 28.2369C16.0504 28.9785 17.901 28.712 19.1866 27.9705L25.9985 24.0414C28.546 22.572 30.3447 20.0862 30.9425 17.2087C30.9662 17.0949 30.9844 16.9806 31.0041 16.8665L24.5195 15.4427Z" fill="#0E9F6E"/>
<path d="M22.7529 11.5179C24.0386 12.2595 24.5638 13.3635 24.5638 14.8466C24.5638 15.0479 24.548 15.2468 24.5195 15.4427L27.2643 16.6217L31.0041 16.8665C31.483 14.095 30.5445 11.2422 28.8621 8.97463C27.596 7.26819 25.9668 5.78732 24.0082 4.65756C22.4172 3.73984 20.7638 3.13519 19.1026 2.80341L17.2362 5.22041L16.6466 7.99577L22.7529 11.5179Z" fill="#0E9F6E"/>
<path d="M0.783597 13.5518C0.782899 13.554 0.784832 13.5546 0.78556 13.5524C0.929583 13.1205 1.11018 12.6385 1.33564 12.1237C2.51334 9.4343 4.78286 7.64062 7.57492 6.72608C10.367 5.81156 13.4155 6.13212 15.9601 7.59988L16.6465 7.99578L19.1025 2.80341C11.291 1.24324 3.30728 5.83253 0.793528 13.5217C0.792327 13.5254 0.787957 13.5382 0.783597 13.5518Z" fill="#0E9F6E"/>
<path d="M18.9198 27.9705C17.6342 28.712 16.0503 28.712 14.7647 27.9705C14.5901 27.8698 14.4256 27.7566 14.27 27.6341L12.009 29.1886L10.0602 32.3377C12.2233 34.1377 15.0321 34.7164 17.8389 34.3946C19.9512 34.1524 22.0495 33.4832 24.0081 32.3535C25.5992 31.4358 26.95 30.3076 28.0682 29.0362L26.9062 26.2129L25.0262 24.4483L18.9198 27.9705Z" fill="#0E9F6E"/>
<path d="M14.27 27.6341C13.2795 26.8538 12.6871 25.6571 12.6871 24.3754V24.2475V13.5724C12.6871 12.9686 12.865 12.866 13.3883 13.1679C12.5823 12.703 10.7202 11.1069 8.42112 12.4331C7.13551 13.1746 6.07684 14.8115 6.07684 16.2946V24.1528C6.07684 27.0916 7.599 30.1572 9.79442 32.1132C9.88126 32.1906 9.97116 32.2635 10.0602 32.3376L14.27 27.6341Z" fill="#0E9F6E"/>
<path d="M27.9104 7.81236C27.9089 7.81066 27.9074 7.81203 27.9089 7.81374C28.2113 8.15435 28.5388 8.55156 28.8724 9.00405C30.6148 11.3677 31.2659 14.3614 30.6626 17.2343C30.0593 20.1073 28.2572 22.5846 25.7125 24.0524L25.0262 24.4483L28.0682 29.0362C33.3264 23.0577 33.34 13.8555 27.9316 7.83601C27.929 7.83312 27.92 7.82293 27.9104 7.81236Z" fill="#0E9F6E"/>
<path d="M6.34355 16.2947C6.34354 14.8116 7.13551 13.4411 8.42113 12.6996C8.59564 12.5989 8.77601 12.5132 8.96002 12.4398L8.74304 9.70633L7.21861 6.57892C4.57671 7.55035 2.4397 9.55796 1.31528 12.1474C0.469097 14.096 9.792e-06 16.2461 0 18.5056C0 20.341 0.302549 22.0738 0.845532 23.677L3.87391 24.0833L6.34355 23.339V16.2947Z" fill="#0E9F6E"/>
<path d="M8.96003 12.4398C10.1316 11.9729 11.4652 12.0587 12.5763 12.6996L12.6871 12.7635L21.5825 17.8944C22.2065 18.2543 22.1498 18.6085 21.4445 18.756L21.9577 18.6487C22.6329 18.5075 23.2498 18.1624 23.7215 17.6595C24.5327 16.795 24.8304 15.7518 24.8304 14.8466C24.8304 13.3635 24.0385 11.993 22.7529 11.2515L15.941 7.32239C13.3935 5.85298 10.3394 5.53965 7.5461 6.46113C7.4356 6.49758 7.32744 6.53891 7.21863 6.57892L8.96003 12.4398Z" fill="#0E9F6E"/>
<path d="M19.3222 34.1524C19.3244 34.152 19.324 34.15 19.3218 34.1504C18.8753 34.2418 18.3673 34.3265 17.8082 34.3889C14.8881 34.7146 11.9675 33.7811 9.77873 31.8226C7.58996 29.8642 6.34356 27.0663 6.34357 24.1308L6.34356 23.339L0.845551 23.677C3.3989 31.2157 11.3689 35.8286 19.2912 34.1589C19.2949 34.1581 19.3083 34.1555 19.3222 34.1524Z" fill="#0E9F6E"/>
<path d="M45.728 9.316H56.624V12.388H48.968V16.564H55.856V19.636H48.968V26.5H45.728V9.316ZM58.7268 26.5V9.316H61.8708V26.5H58.7268ZM70.0136 14.356C70.9256 14.356 71.7576 14.516 72.5096 14.836C73.2776 15.14 73.9336 15.572 74.4776 16.132C75.0376 16.676 75.4696 17.332 75.7736 18.1C76.0936 18.868 76.2536 19.708 76.2536 20.62C76.2536 21.532 76.0936 22.372 75.7736 23.14C75.4696 23.908 75.0376 24.572 74.4776 25.132C73.9336 25.676 73.2776 26.108 72.5096 26.428C71.7576 26.732 70.9256 26.884 70.0136 26.884C69.1016 26.884 68.2616 26.732 67.4936 26.428C66.7416 26.108 66.0856 25.676 65.5256 25.132C64.9816 24.572 64.5496 23.908 64.2296 23.14C63.9256 22.372 63.7736 21.532 63.7736 20.62C63.7736 19.708 63.9256 18.868 64.2296 18.1C64.5496 17.332 64.9816 16.676 65.5256 16.132C66.0856 15.572 66.7416 15.14 67.4936 14.836C68.2616 14.516 69.1016 14.356 70.0136 14.356ZM70.0136 23.98C70.4136 23.98 70.7976 23.908 71.1656 23.764C71.5496 23.604 71.8856 23.38 72.1736 23.092C72.4616 22.804 72.6856 22.452 72.8456 22.036C73.0216 21.62 73.1096 21.148 73.1096 20.62C73.1096 20.092 73.0216 19.62 72.8456 19.204C72.6856 18.788 72.4616 18.436 72.1736 18.148C71.8856 17.86 71.5496 17.644 71.1656 17.5C70.7976 17.34 70.4136 17.26 70.0136 17.26C69.5976 17.26 69.2056 17.34 68.8376 17.5C68.4696 17.644 68.1416 17.86 67.8536 18.148C67.5656 18.436 67.3336 18.788 67.1576 19.204C66.9976 19.62 66.9176 20.092 66.9176 20.62C66.9176 21.148 66.9976 21.62 67.1576 22.036C67.3336 22.452 67.5656 22.804 67.8536 23.092C68.1416 23.38 68.4696 23.604 68.8376 23.764C69.2056 23.908 69.5976 23.98 70.0136 23.98ZM76.7913 14.74H80.3193L82.2633 22.108H82.4313L84.7593 14.74H87.9993L90.3513 22.108H90.5193L92.4393 14.74H95.9193L92.1513 26.5H88.7673L86.4153 19.084H86.2473L83.8953 26.5H80.5593L76.7913 14.74ZM97.3518 9.316H100.496V14.476L100.304 16.156H100.496C100.784 15.66 101.232 15.236 101.84 14.884C102.448 14.532 103.2 14.356 104.096 14.356C104.848 14.356 105.56 14.516 106.232 14.836C106.92 15.14 107.52 15.572 108.032 16.132C108.56 16.676 108.976 17.332 109.28 18.1C109.584 18.868 109.736 19.708 109.736 20.62C109.736 21.532 109.584 22.372 109.28 23.14C108.976 23.908 108.56 24.572 108.032 25.132C107.52 25.676 106.92 26.108 106.232 26.428C105.56 26.732 104.848 26.884 104.096 26.884C103.2 26.884 102.448 26.708 101.84 26.356C101.232 26.004 100.784 25.58 100.496 25.084H100.304V26.5H97.3518V9.316ZM103.448 23.98C103.864 23.98 104.256 23.9 104.624 23.74C105.008 23.58 105.344 23.356 105.632 23.068C105.92 22.78 106.152 22.428 106.328 22.012C106.504 21.596 106.592 21.132 106.592 20.62C106.592 20.108 106.504 19.644 106.328 19.228C106.152 18.812 105.92 18.46 105.632 18.172C105.344 17.884 105.008 17.66 104.624 17.5C104.256 17.34 103.864 17.26 103.448 17.26C103.032 17.26 102.632 17.34 102.248 17.5C101.88 17.644 101.552 17.86 101.264 18.148C100.976 18.436 100.744 18.788 100.568 19.204C100.392 19.62 100.304 20.092 100.304 20.62C100.304 21.148 100.392 21.62 100.568 22.036C100.744 22.452 100.976 22.804 101.264 23.092C101.552 23.38 101.88 23.604 102.248 23.764C102.632 23.908 103.032 23.98 103.448 23.98ZM113.377 13.036C113.105 13.036 112.841 12.988 112.585 12.892C112.345 12.78 112.129 12.636 111.937 12.46C111.761 12.268 111.617 12.052 111.505 11.812C111.409 11.572 111.361 11.308 111.361 11.02C111.361 10.732 111.409 10.468 111.505 10.228C111.617 9.988 111.761 9.78 111.937 9.604C112.129 9.412 112.345 9.268 112.585 9.172C112.841 9.06 113.105 9.004 113.377 9.004C113.937 9.004 114.417 9.204 114.817 9.604C115.217 9.988 115.417 10.46 115.417 11.02C115.417 11.58 115.217 12.06 114.817 12.46C114.417 12.844 113.937 13.036 113.377 13.036ZM111.817 26.5V14.74H114.961V26.5H111.817ZM119.015 17.428H116.951V14.74H119.015V11.14H122.159V14.74H125.039V17.428H122.159V21.988C122.159 22.26 122.183 22.516 122.231 22.756C122.295 22.98 122.407 23.172 122.567 23.332C122.791 23.588 123.111 23.716 123.527 23.716C123.799 23.716 124.015 23.692 124.175 23.644C124.335 23.58 124.487 23.5 124.631 23.404L125.519 26.164C125.151 26.34 124.751 26.468 124.319 26.548C123.903 26.644 123.439 26.692 122.927 26.692C122.335 26.692 121.799 26.604 121.319 26.428C120.855 26.236 120.463 25.98 120.143 25.66C119.391 24.94 119.015 23.916 119.015 22.588V17.428ZM138.371 23.668C137.827 24.628 137.091 25.404 136.163 25.996C135.251 26.588 134.131 26.884 132.803 26.884C131.907 26.884 131.075 26.732 130.307 26.428C129.555 26.108 128.899 25.668 128.339 25.108C127.779 24.548 127.339 23.892 127.019 23.14C126.715 22.372 126.563 21.532 126.563 20.62C126.563 19.772 126.715 18.972 127.019 18.22C127.323 17.452 127.747 16.788 128.291 16.228C128.835 15.652 129.475 15.196 130.211 14.86C130.963 14.524 131.787 14.356 132.683 14.356C133.627 14.356 134.467 14.516 135.203 14.836C135.939 15.14 136.555 15.572 137.051 16.132C137.547 16.676 137.923 17.324 138.179 18.076C138.435 18.828 138.563 19.644 138.563 20.524C138.563 20.636 138.563 20.732 138.563 20.812C138.547 20.908 138.539 20.996 138.539 21.076C138.523 21.156 138.515 21.244 138.515 21.34H129.659C129.723 21.82 129.851 22.236 130.043 22.588C130.251 22.924 130.499 23.212 130.787 23.452C131.091 23.676 131.419 23.844 131.771 23.956C132.123 24.052 132.483 24.1 132.851 24.1C133.571 24.1 134.163 23.94 134.627 23.62C135.107 23.284 135.483 22.868 135.755 22.372L138.371 23.668ZM135.515 19.108C135.499 18.9 135.427 18.668 135.299 18.412C135.187 18.156 135.011 17.916 134.771 17.692C134.547 17.468 134.259 17.284 133.907 17.14C133.571 16.996 133.163 16.924 132.683 16.924C132.011 16.924 131.419 17.116 130.907 17.5C130.395 17.884 130.035 18.42 129.827 19.108H135.515Z" fill="#1F2A37"/>
</svg>
