<svg id="Layer_1" data-name="Layer 1" xmlns="http://www.w3.org/2000/svg" viewBox="0 0 911.96 824.5"><defs><style>.cls-1{fill:#059669;}.cls-2{fill:#fff;}.cls-3{fill:#ffbc15;}.cls-4{fill:#ed802f;}</style></defs><path class="cls-1" d="M399.78,364,394.37,337c-.46-2.12-.93-4.31-1.39-6.6l-3.41-16.31.18,0c-6.53-32.18-17.1-70.94-51.37-82.93-28.2-9.88-64.07,1.6-111.24,36a395.9,395.9,0,0,0-40.46,31.35c-11.07,9.87,14.15,59.34,44.43,39.27,38.75-25.69,63-48.22,63-48.22l-8.61-15.77c21.88-10.73,34.23-10.38,40.77-8.1,18.1,6.34,35.37,17.37,38.32,42.6C367.1,329.46,399.78,364,399.78,364Z" transform="translate(-184.02 -227.75)"/><path class="cls-1" d="M977.25,305h0a41,41,0,0,0-40.87-37.33h-538c-23.59,0-40.74,19.12-38.1,42.56C381,494.61,514,896.62,285.08,946.2H391.66C737.41,946.2,1008.53,649.34,977.25,305Z" transform="translate(-184.02 -227.75)"/><path class="cls-1" d="M1013.18,305.73c19.55,180-63.5,352.42-167.91,466.74a619.81,619.81,0,0,1-111.6,95.95c182.22-96.27,345.66-281.2,362.31-504.28h0Z" transform="translate(-184.02 -227.75)"/><path class="cls-2" d="M724.52,327.83l-147,229.76a2.82,2.82,0,0,0,2.25,4.33l44.65,1.94a2.82,2.82,0,0,1,2.49,3.87L553.82,749.38a2.82,2.82,0,0,0,4.88,2.72L723.93,527.37a2.82,2.82,0,0,0-2.27-4.49l-32.74.06a2.81,2.81,0,0,1-2.75-3.44L729.64,330A2.82,2.82,0,0,0,724.52,327.83Z" transform="translate(-184.02 -227.75)"/><ellipse class="cls-3" cx="359.19" cy="1004.96" rx="49.42" ry="41.32" transform="translate(-867.05 547.55) rotate(-57.91)"/><ellipse class="cls-4" cx="359.19" cy="1004.96" rx="21.98" ry="18.38" transform="translate(-867.05 547.55) rotate(-57.91)"/><ellipse class="cls-3" cx="566.54" cy="994.72" rx="49.42" ry="41.32" transform="translate(-761.19 718.42) rotate(-57.91)"/><ellipse class="cls-4" cx="566.54" cy="994.72" rx="21.98" ry="18.38" transform="translate(-761.19 718.42) rotate(-57.91)"/></svg>