<svg width="140" height="36" viewBox="0 0 140 36" fill="none" xmlns="http://www.w3.org/2000/svg">
<path d="M24.5195 14.9427C24.4454 15.4531 24.1088 16.1466 23.7227 16.7495C23.2355 17.5103 22.4623 18.0431 21.5775 18.2281L17.6798 19.0432C17.0534 19.1742 16.4853 19.502 16.0588 19.9788L13.5032 22.8355C13.0228 23.3724 12.6871 23.2443 12.6871 22.5243C12.6813 22.5509 11.4188 25.807 14.7647 27.7369C16.0503 28.4785 17.901 28.212 19.1866 27.4705L25.9984 23.5414C28.546 22.072 30.3446 19.5862 30.9425 16.7087C30.9661 16.5949 30.9844 16.4806 31.0041 16.3665L24.5195 14.9427Z" fill="#0E9F6E"/>
<path d="M22.7529 11.0179C24.0386 11.7595 24.5638 12.8635 24.5638 14.3466C24.5638 14.5479 24.548 14.7468 24.5195 14.9427L27.2643 16.1217L31.0041 16.3665C31.483 13.595 30.5445 10.7422 28.8621 8.47463C27.596 6.76819 25.9668 5.28732 24.0082 4.15756C22.4172 3.23984 20.7638 2.63519 19.1026 2.30341L17.2362 4.72041L16.6466 7.49577L22.7529 11.0179Z" fill="#0E9F6E"/>
<path d="M0.783597 13.0518C0.782899 13.054 0.784832 13.0546 0.78556 13.0524C0.929583 12.6205 1.11018 12.1385 1.33564 11.6237C2.51334 8.9343 4.78286 7.14062 7.57492 6.22608C10.367 5.31156 13.4155 5.63212 15.9601 7.09988L16.6465 7.49578L19.1025 2.30341C11.291 0.743236 3.30728 5.33253 0.793528 13.0217C0.792327 13.0254 0.787957 13.0382 0.783597 13.0518Z" fill="#0E9F6E"/>
<path d="M18.9198 27.4705C17.6342 28.212 16.0502 28.212 14.7646 27.4705C14.5901 27.3698 14.4256 27.2567 14.27 27.1341L12.009 28.6886L10.0602 31.8377C12.2232 33.6378 15.032 34.2165 17.8388 33.8946C19.9511 33.6524 22.0494 32.9833 24.008 31.8535C25.5991 30.9358 26.9499 29.8076 28.0681 28.5362L26.9062 25.7129L25.0261 23.9483L18.9198 27.4705Z" fill="#0E9F6E"/>
<path d="M14.27 27.1341C13.2795 26.3539 12.687 25.1572 12.687 23.8754V23.7476V13.0724C12.687 12.4687 12.8649 12.3661 13.3882 12.6679C12.5822 12.203 10.7202 10.607 8.42105 11.9331C7.13545 12.6747 6.07678 14.3115 6.07678 15.7946V23.6528C6.07678 26.5917 7.59894 29.6572 9.79436 31.6132C9.8812 31.6906 9.9711 31.7635 10.0602 31.8377L14.27 27.1341Z" fill="#0E9F6E"/>
<path d="M27.9104 7.31239C27.9089 7.31069 27.9073 7.31206 27.9089 7.31377C28.2113 7.65438 28.5388 8.05159 28.8723 8.50408C30.6148 10.8677 31.2658 13.8614 30.6626 16.7344C30.0593 19.6073 28.2571 22.0847 25.7125 23.5524L25.0261 23.9483L28.0681 28.5362C33.3264 22.5577 33.34 13.3555 27.9315 7.33604C27.9289 7.33316 27.92 7.32296 27.9104 7.31239Z" fill="#0E9F6E"/>
<path d="M6.34355 15.7947C6.34354 14.3116 7.13551 12.9411 8.42113 12.1996C8.59564 12.0989 8.77601 12.0132 8.96002 11.9398L8.74304 9.20633L7.21861 6.07892C4.57671 7.05035 2.4397 9.05796 1.31528 11.6474C0.469097 13.596 9.792e-06 15.7461 0 18.0056C0 19.841 0.302549 21.5738 0.845532 23.177L3.87391 23.5833L6.34355 22.839V15.7947Z" fill="#0E9F6E"/>
<path d="M8.96003 11.9398C10.1316 11.4729 11.4652 11.5587 12.5763 12.1996L12.6871 12.2635L21.5825 17.3944C22.2065 17.7543 22.1498 18.1085 21.4445 18.256L21.9577 18.1487C22.6329 18.0075 23.2498 17.6624 23.7215 17.1595C24.5327 16.295 24.8304 15.2518 24.8304 14.3466C24.8304 12.8635 24.0385 11.493 22.7529 10.7515L15.941 6.82239C13.3935 5.35298 10.3394 5.03965 7.5461 5.96113C7.4356 5.99758 7.32744 6.03891 7.21863 6.07892L8.96003 11.9398Z" fill="#0E9F6E"/>
<path d="M19.3222 33.6524C19.3245 33.652 19.3241 33.65 19.3218 33.6504C18.8753 33.7418 18.3673 33.8265 17.8083 33.8889C14.8881 34.2146 11.9676 33.2811 9.77876 31.3226C7.58999 29.3642 6.34359 26.5663 6.3436 23.6308L6.34359 22.839L0.845581 23.177C3.39893 30.7157 11.369 35.3286 19.2912 33.6589C19.295 33.6581 19.3083 33.6555 19.3222 33.6524Z" fill="#0E9F6E"/>
<path d="M45.728 8.816H56.624V11.888H48.968V16.064H55.856V19.136H48.968V26H45.728V8.816ZM58.7268 26V8.816H61.8708V26H58.7268ZM70.0136 13.856C70.9256 13.856 71.7576 14.016 72.5096 14.336C73.2776 14.64 73.9336 15.072 74.4776 15.632C75.0376 16.176 75.4696 16.832 75.7736 17.6C76.0936 18.368 76.2536 19.208 76.2536 20.12C76.2536 21.032 76.0936 21.872 75.7736 22.64C75.4696 23.408 75.0376 24.072 74.4776 24.632C73.9336 25.176 73.2776 25.608 72.5096 25.928C71.7576 26.232 70.9256 26.384 70.0136 26.384C69.1016 26.384 68.2616 26.232 67.4936 25.928C66.7416 25.608 66.0856 25.176 65.5256 24.632C64.9816 24.072 64.5496 23.408 64.2296 22.64C63.9256 21.872 63.7736 21.032 63.7736 20.12C63.7736 19.208 63.9256 18.368 64.2296 17.6C64.5496 16.832 64.9816 16.176 65.5256 15.632C66.0856 15.072 66.7416 14.64 67.4936 14.336C68.2616 14.016 69.1016 13.856 70.0136 13.856ZM70.0136 23.48C70.4136 23.48 70.7976 23.408 71.1656 23.264C71.5496 23.104 71.8856 22.88 72.1736 22.592C72.4616 22.304 72.6856 21.952 72.8456 21.536C73.0216 21.12 73.1096 20.648 73.1096 20.12C73.1096 19.592 73.0216 19.12 72.8456 18.704C72.6856 18.288 72.4616 17.936 72.1736 17.648C71.8856 17.36 71.5496 17.144 71.1656 17C70.7976 16.84 70.4136 16.76 70.0136 16.76C69.5976 16.76 69.2056 16.84 68.8376 17C68.4696 17.144 68.1416 17.36 67.8536 17.648C67.5656 17.936 67.3336 18.288 67.1576 18.704C66.9976 19.12 66.9176 19.592 66.9176 20.12C66.9176 20.648 66.9976 21.12 67.1576 21.536C67.3336 21.952 67.5656 22.304 67.8536 22.592C68.1416 22.88 68.4696 23.104 68.8376 23.264C69.2056 23.408 69.5976 23.48 70.0136 23.48ZM76.7913 14.24H80.3193L82.2633 21.608H82.4313L84.7593 14.24H87.9993L90.3513 21.608H90.5193L92.4393 14.24H95.9193L92.1513 26H88.7673L86.4153 18.584H86.2473L83.8953 26H80.5593L76.7913 14.24ZM97.3518 8.816H100.496V13.976L100.304 15.656H100.496C100.784 15.16 101.232 14.736 101.84 14.384C102.448 14.032 103.2 13.856 104.096 13.856C104.848 13.856 105.56 14.016 106.232 14.336C106.92 14.64 107.52 15.072 108.032 15.632C108.56 16.176 108.976 16.832 109.28 17.6C109.584 18.368 109.736 19.208 109.736 20.12C109.736 21.032 109.584 21.872 109.28 22.64C108.976 23.408 108.56 24.072 108.032 24.632C107.52 25.176 106.92 25.608 106.232 25.928C105.56 26.232 104.848 26.384 104.096 26.384C103.2 26.384 102.448 26.208 101.84 25.856C101.232 25.504 100.784 25.08 100.496 24.584H100.304V26H97.3518V8.816ZM103.448 23.48C103.864 23.48 104.256 23.4 104.624 23.24C105.008 23.08 105.344 22.856 105.632 22.568C105.92 22.28 106.152 21.928 106.328 21.512C106.504 21.096 106.592 20.632 106.592 20.12C106.592 19.608 106.504 19.144 106.328 18.728C106.152 18.312 105.92 17.96 105.632 17.672C105.344 17.384 105.008 17.16 104.624 17C104.256 16.84 103.864 16.76 103.448 16.76C103.032 16.76 102.632 16.84 102.248 17C101.88 17.144 101.552 17.36 101.264 17.648C100.976 17.936 100.744 18.288 100.568 18.704C100.392 19.12 100.304 19.592 100.304 20.12C100.304 20.648 100.392 21.12 100.568 21.536C100.744 21.952 100.976 22.304 101.264 22.592C101.552 22.88 101.88 23.104 102.248 23.264C102.632 23.408 103.032 23.48 103.448 23.48ZM113.377 12.536C113.105 12.536 112.841 12.488 112.585 12.392C112.345 12.28 112.129 12.136 111.937 11.96C111.761 11.768 111.617 11.552 111.505 11.312C111.409 11.072 111.361 10.808 111.361 10.52C111.361 10.232 111.409 9.968 111.505 9.728C111.617 9.488 111.761 9.28 111.937 9.104C112.129 8.912 112.345 8.768 112.585 8.672C112.841 8.56 113.105 8.504 113.377 8.504C113.937 8.504 114.417 8.704 114.817 9.104C115.217 9.488 115.417 9.96 115.417 10.52C115.417 11.08 115.217 11.56 114.817 11.96C114.417 12.344 113.937 12.536 113.377 12.536ZM111.817 26V14.24H114.961V26H111.817ZM119.015 16.928H116.951V14.24H119.015V10.64H122.159V14.24H125.039V16.928H122.159V21.488C122.159 21.76 122.183 22.016 122.231 22.256C122.295 22.48 122.407 22.672 122.567 22.832C122.791 23.088 123.111 23.216 123.527 23.216C123.799 23.216 124.015 23.192 124.175 23.144C124.335 23.08 124.487 23 124.631 22.904L125.519 25.664C125.151 25.84 124.751 25.968 124.319 26.048C123.903 26.144 123.439 26.192 122.927 26.192C122.335 26.192 121.799 26.104 121.319 25.928C120.855 25.736 120.463 25.48 120.143 25.16C119.391 24.44 119.015 23.416 119.015 22.088V16.928ZM138.371 23.168C137.827 24.128 137.091 24.904 136.163 25.496C135.251 26.088 134.131 26.384 132.803 26.384C131.907 26.384 131.075 26.232 130.307 25.928C129.555 25.608 128.899 25.168 128.339 24.608C127.779 24.048 127.339 23.392 127.019 22.64C126.715 21.872 126.563 21.032 126.563 20.12C126.563 19.272 126.715 18.472 127.019 17.72C127.323 16.952 127.747 16.288 128.291 15.728C128.835 15.152 129.475 14.696 130.211 14.36C130.963 14.024 131.787 13.856 132.683 13.856C133.627 13.856 134.467 14.016 135.203 14.336C135.939 14.64 136.555 15.072 137.051 15.632C137.547 16.176 137.923 16.824 138.179 17.576C138.435 18.328 138.563 19.144 138.563 20.024C138.563 20.136 138.563 20.232 138.563 20.312C138.547 20.408 138.539 20.496 138.539 20.576C138.523 20.656 138.515 20.744 138.515 20.84H129.659C129.723 21.32 129.851 21.736 130.043 22.088C130.251 22.424 130.499 22.712 130.787 22.952C131.091 23.176 131.419 23.344 131.771 23.456C132.123 23.552 132.483 23.6 132.851 23.6C133.571 23.6 134.163 23.44 134.627 23.12C135.107 22.784 135.483 22.368 135.755 21.872L138.371 23.168ZM135.515 18.608C135.499 18.4 135.427 18.168 135.299 17.912C135.187 17.656 135.011 17.416 134.771 17.192C134.547 16.968 134.259 16.784 133.907 16.64C133.571 16.496 133.163 16.424 132.683 16.424C132.011 16.424 131.419 16.616 130.907 17C130.395 17.384 130.035 17.92 129.827 18.608H135.515Z" fill="white"/>
</svg>
